PathFileType	4	(X/Y/Z)	SUBJ62_0_static_RCNL2025.trc
DataRate	CameraRate	NumFrames	NumMarkers	Units	OrigDataRate	OrigDataStartFrame	OrigNumFrames
100	100	10	25	mm	100	57	85
Frame#	Time	R_Shoulder			L_Shoulder			C7			J_Notch			R_Elbow			L_Elbow			R_Wrist			L_Wrist			R_Asis			L_Asis			Sacral			Thoracic			Sternum			R_Thigh_Lateral			R_Knee_Lateral			R_Shank_Lateral			R_Ankle_Lateral			R_Heel			R_Toe			L_Thigh_Lateral			L_Knee_Lateral			L_Shank_Lateral			L_Ankle_Lateral			L_Heel			L_Toe		
		X1	Y1	Z1	X2	Y2	Z2	X3	Y3	Z3	X4	Y4	Z4	X5	Y5	Z5	X6	Y6	Z6	X7	Y7	Z7	X8	Y8	Z8	X9	Y9	Z9	X10	Y10	Z10	X11	Y11	Z11	X12	Y12	Z12	X13	Y13	Z13	X14	Y14	Z14	X15	Y15	Z15	X16	Y16	Z16	X17	Y17	Z17	X18	Y18	Z18	X19	Y19	Z19	X20	Y20	Z20	X21	Y21	Z21	X22	Y22	Z22	X23	Y23	Z23	X24	Y24	Z24	X25	Y25	Z25
57	0.56000000	-297.608490	1299.477905	-69.991356	-306.244873	1301.289795	-407.977997	-368.001465	1359.201416	-242.142044	-234.717667	1275.874634	-244.359909	-358.651825	1014.356079	13.106251	-327.479492	1014.465088	-506.706573	-293.306564	802.534821	23.091187	-273.951752	801.872650	-509.918320	-240.868271	877.910706	-96.949181	-234.879425	866.512512	-356.736908	-411.696014	884.684509	-233.882324	-421.863647	1162.352051	-239.945099	-213.121307	1076.882690	-240.797974	-351.166168	500.414673	-17.954525	-355.472321	437.669556	-90.158150	-375.206390	260.398987	-47.484196	-373.349884	65.055412	-119.807518	-418.558044	47.242165	-166.035400	-267.406128	47.983318	-122.963318	-356.550964	479.840485	-409.408722	-378.497772	416.888763	-360.487213	-380.069763	223.999619	-394.908539	-370.202881	54.961212	-326.065369	-420.685150	51.272575	-274.892059	-259.687622	39.212330	-328.998932
58	0.57000000	-297.595581	1299.447998	-69.993568	-306.227875	1301.322144	-407.990814	-368.010010	1359.203735	-242.136124	-234.719971	1275.916260	-244.368027	-358.504486	1014.288513	13.146402	-327.453857	1014.513489	-506.577332	-293.348328	802.520325	23.063637	-273.992996	801.878693	-509.928925	-240.883591	877.888977	-96.982704	-234.870575	866.504150	-356.779968	-411.716125	884.677246	-233.869217	-421.878479	1162.360474	-239.922897	-213.108505	1076.907837	-240.827713	-351.112305	500.453735	-17.904068	-355.469421	437.678253	-90.153152	-375.177155	260.379791	-47.487640	-373.342804	65.079391	-119.829788	-418.513947	47.260723	-166.034470	-267.404114	47.938705	-123.053772	-356.609741	479.798828	-409.327698	-378.502716	416.868256	-360.474365	-380.109314	224.013779	-394.934570	-370.187134	54.958260	-326.086823	-420.647186	51.244656	-274.899139	-259.703278	39.207123	-329.010284
59	0.58000000	-297.576080	1299.448242	-70.005768	-306.251373	1301.306763	-407.956146	-367.945923	1359.196533	-242.066360	-234.731064	1275.894165	-244.357452	-358.484344	1014.281372	13.142643	-327.532349	1014.495789	-506.679443	-293.315689	802.498383	23.061495	-273.989105	801.872284	-509.954269	-240.879715	877.903442	-96.949005	-234.870850	866.520569	-356.764374	-411.736938	884.612183	-233.842255	-421.788147	1162.304688	-239.882645	-213.122406	1076.866089	-240.796432	-351.091370	500.428558	-17.885151	-355.468536	437.666656	-90.144646	-375.199554	260.334625	-47.495468	-373.354034	65.061363	-119.805206	-418.348083	47.197067	-166.087570	-267.357971	47.951836	-123.012764	-356.546906	479.835052	-409.324829	-378.502838	416.856842	-360.484650	-380.090057	224.006332	-394.893066	-369.989014	54.713875	-326.230499	-420.688385	51.281731	-274.872253	-259.693237	39.213509	-329.009155
60	0.59000000	-297.587769	1299.451782	-69.994469	-306.256866	1301.313477	-407.962708	-367.950470	1359.131592	-242.041153	-234.730560	1275.887085	-244.432419	-358.494080	1014.285400	13.144711	-327.551239	1014.485535	-506.657593	-293.310547	802.457245	23.082334	-274.013840	801.878082	-509.892654	-240.893784	877.861023	-96.941895	-234.783218	866.433105	-356.705292	-411.671509	884.596497	-233.769867	-421.826721	1162.326416	-239.828568	-213.130768	1076.875610	-240.789139	-351.065155	500.422638	-17.900076	-355.467712	437.676270	-90.161041	-375.201355	260.398682	-47.464451	-373.379211	65.095947	-119.807480	-418.401154	47.123699	-166.003647	-267.344299	47.938808	-123.021713	-356.562744	479.800415	-409.263336	-378.491333	416.906219	-360.480682	-380.073456	224.022461	-394.891357	-370.083527	54.826103	-326.150879	-420.642517	51.328537	-275.040833	-259.681610	39.219833	-329.007233
61	0.60000000	-297.501312	1299.363159	-69.919678	-306.252502	1301.302979	-407.941376	-367.967377	1359.136597	-242.020309	-234.694962	1275.801758	-244.227081	-358.518219	1014.341309	13.178125	-327.540619	1014.515625	-506.666138	-293.273239	802.444702	23.086643	-274.043686	801.891235	-509.916992	-240.893600	877.911377	-96.922218	-234.770050	866.443726	-356.701447	-411.660950	884.584717	-233.749023	-421.893311	1162.372437	-239.797089	-213.108582	1076.906494	-240.805374	-351.043335	500.374664	-17.802671	-355.364655	437.655060	-90.119049	-375.158844	260.389191	-47.455826	-373.369720	65.083694	-119.812614	-418.550201	47.245949	-166.031113	-267.357178	47.954472	-122.997528	-356.591461	479.836884	-409.220245	-378.424225	416.863281	-360.389343	-380.069916	224.011078	-394.901093	-370.158356	54.840714	-326.067261	-420.658478	51.302513	-274.870483	-259.620300	39.221527	-329.051666
62	0.61000000	-297.537323	1299.383301	-69.907234	-306.324585	1301.311890	-407.886719	-367.969635	1359.147949	-242.018097	-234.302124	1275.607056	-244.687744	-358.546387	1014.326721	13.187851	-327.770416	1014.206177	-506.513672	-293.255829	802.417175	23.109195	-274.064850	801.899597	-509.940887	-240.815063	877.846191	-96.835907	-234.772812	866.448669	-356.704865	-411.658661	884.629700	-233.751465	-421.898102	1162.375122	-239.795425	-213.199982	1076.874634	-240.713867	-351.054718	500.380219	-17.796684	-355.392578	437.702332	-90.090637	-375.150391	260.383636	-47.463985	-373.333649	65.066986	-119.805946	-418.540253	47.221260	-165.940201	-267.368988	47.967945	-122.989311	-356.588715	479.822235	-409.208893	-378.413147	416.866211	-360.321075	-380.123169	224.024384	-394.868652	-370.022888	54.743996	-326.110291	-420.659241	51.273418	-274.870575	-259.681641	39.235695	-328.997070
63	0.62000000	-297.527863	1299.368042	-69.897820	-306.323212	1301.297241	-407.897339	-367.968994	1359.148193	-242.018829	-234.684326	1275.905762	-244.484726	-358.546356	1014.360107	13.193178	-327.570862	1014.545349	-506.600769	-293.215591	802.426636	23.067901	-274.106171	801.932434	-509.946121	-240.784836	877.866455	-96.825310	-234.845169	866.461853	-356.612671	-411.595398	884.620239	-233.680618	-421.911591	1162.383057	-239.773132	-213.115707	1076.863525	-240.654739	-351.059174	500.372498	-17.790834	-355.429932	437.720398	-90.028419	-375.159943	260.401947	-47.449661	-373.370178	65.091530	-119.774269	-418.471649	47.220985	-165.952194	-267.368317	47.967361	-123.000336	-356.504211	479.856750	-409.266113	-378.490845	416.869751	-360.311249	-380.098694	224.057495	-394.807892	-369.991852	54.743359	-326.178192	-420.732574	51.381248	-274.801788	-259.642548	39.219410	-329.000763
64	0.63000000	-297.491364	1299.451172	-69.921715	-306.366577	1301.350220	-407.902100	-367.998444	1359.184937	-241.987411	-234.757812	1275.888184	-244.351135	-358.546234	1014.326477	13.187334	-327.667175	1014.598450	-506.644836	-293.241592	802.417725	23.059039	-274.100861	801.917603	-509.949417	-240.774704	877.878601	-96.856026	-234.880280	866.429688	-356.571808	-411.648132	884.646545	-233.632797	-421.912262	1162.373535	-239.773514	-213.202942	1076.866699	-240.673721	-351.012756	500.412048	-17.798109	-355.424011	437.713715	-90.055542	-375.210083	260.365295	-47.470112	-373.320984	65.062614	-119.819450	-418.464081	47.209354	-165.961227	-267.404816	47.974430	-122.952309	-356.614349	479.864777	-409.183655	-378.458618	416.877594	-360.320557	-380.070496	224.001312	-394.883362	-370.002747	54.746822	-326.161377	-420.744415	51.380169	-274.799866	-259.631622	39.222324	-329.022858
65	0.64000000	-297.477478	1299.423828	-69.924416	-306.331055	1301.332886	-407.902069	-368.078400	1359.195312	-241.935760	-234.689056	1275.897461	-244.284576	-358.503479	1014.288879	13.149518	-327.889587	1014.237549	-506.543671	-293.315079	802.428955	23.022680	-274.143433	801.906036	-509.979095	-240.746948	877.950378	-96.837158	-234.882431	866.423462	-356.571442	-411.657684	884.650940	-233.629440	-421.911224	1162.372559	-239.774612	-213.012650	1076.924805	-240.753616	-350.998474	500.426697	-17.814777	-355.442780	437.644653	-90.028603	-375.155762	260.372772	-47.466133	-373.361023	65.081406	-119.817474	-418.517517	47.298676	-166.075714	-267.403900	47.978298	-122.972816	-356.669861	479.870331	-409.180359	-378.438843	416.934570	-360.269836	-380.074371	224.041840	-394.869232	-369.938232	54.751122	-326.237274	-420.699982	51.291607	-274.866211	-259.659668	39.187511	-329.002319
66	0.65000000	-297.471436	1299.416626	-69.931564	-306.394592	1301.360229	-407.882751	-368.100250	1359.204102	-241.910004	-234.757767	1275.893799	-244.366821	-358.469025	1014.266052	13.130501	-327.714172	1014.555664	-506.670319	-293.313095	802.437958	23.021328	-274.175262	801.984528	-510.022644	-240.859497	877.822571	-96.705772	-234.877335	866.425842	-356.575348	-411.727051	884.661743	-233.589111	-421.848785	1162.363647	-239.703522	-212.999939	1076.988403	-240.683319	-350.962555	500.355621	-17.717817	-355.462799	437.666229	-90.031258	-375.084198	260.364166	-47.406429	-373.335480	65.025604	-119.798653	-418.506134	47.234623	-165.981537	-267.362061	47.956593	-123.004616	-356.567810	479.884949	-409.175385	-378.441528	416.926300	-360.295807	-380.078033	224.075623	-394.879944	-370.138306	54.871872	-326.115295	-420.690521	51.281879	-274.873138	-259.636230	39.235744	-329.012878
